<mxfile host="app.diagrams.net" modified="2024-02-19T07:03:28.489Z" agent="Mozilla/5.0 (Windows NT 10.0; Win64; x64) AppleWebKit/537.36 (KHTML, like Gecko) Chrome/120.0.0.0 Safari/537.36" version="23.1.5" etag="TOtnOAESxSgzMki4wvAs" type="github">
  <diagram name="Страница — 1" id="ztIrTDub3_c9Taw2ZlbO">
    <mxGraphModel>
      <root>
        <mxCell id="0" />
        <mxCell id="1" parent="0" />
      </root>
    </mxGraphModel>
  </diagram>
</mxfile>
